<svg width="6" height="10" viewBox="0 0 6 10" fill="none" xmlns="http://www.w3.org/2000/svg">
<path d="M1.35357 0.646465C1.15832 0.451193 0.841738 0.451176 0.646465 0.646428C0.451193 0.84168 0.451176 1.15826 0.646428 1.35353L1.35357 0.646465ZM5 5.00043L5.35355 5.35398C5.54881 5.15872 5.54882 4.84216 5.35357 4.64689L5 5.00043ZM0.646447 8.64687C0.451184 8.84213 0.451184 9.15872 0.646447 9.35398C0.841709 9.54924 1.15829 9.54924 1.35355 9.35398L0.646447 8.64687ZM0.646428 1.35353L4.64643 5.35396L5.35357 4.64689L1.35357 0.646465L0.646428 1.35353ZM4.64645 4.64687L0.646447 8.64687L1.35355 9.35398L5.35355 5.35398L4.64645 4.64687Z" fill="#464B56"/>
</svg>
