<svg width="33" height="28" viewBox="0 0 33 28" fill="none" xmlns="http://www.w3.org/2000/svg">
<path opacity="0.1"
      d="M9.1 14.9C10.4333 15.3667 11.4667 16.1333 12.2 17.2C12.9333 18.2667 13.3 19.5667 13.3 21.1C13.3 23.1 12.6667 24.7333 11.4 26C10.1333 27.2667 8.56667 27.9 6.7 27.9C4.76667 27.9 3.16667 27.2667 1.9 26C0.633333 24.6667 0 23.0333 0 21.1C0 20.1667 0.0999999 19.2333 0.3 18.3C0.566667 17.3 1.06667 15.8667 1.8 14L6.5 0H12.8L9.1 14.9ZM28 14.9C29.3333 15.3667 30.3667 16.1333 31.1 17.2C31.8333 18.2667 32.2 19.5667 32.2 21.1C32.2 23.1 31.5667 24.7333 30.3 26C29.0333 27.2667 27.4667 27.9 25.6 27.9C23.6667 27.9 22.0667 27.2667 20.8 26C19.5333 24.6667 18.9 23.0333 18.9 21.1C18.9 20.1667 19 19.2333 19.2 18.3C19.4667 17.3 19.9667 15.8667 20.7 14L25.4 0H31.7L28 14.9Z" fill="#464B56"/>
</svg>
