<svg width="30" height="28" viewBox="0 0 30 28" fill="none" xmlns="http://www.w3.org/2000/svg">
<rect x="30" y="8" width="20" height="30" transform="rotate(90 30 8)" fill="#F7F8FB"/>
<rect x="23" y="18" width="1" height="15" rx="0.5" transform="rotate(90 23 18)" fill="#464B56"/>
<rect x="15.9392" width="14.5671" height="0.994649" transform="rotate(90 15.9392 0)" fill="#464B56"/>
<path fill-rule="evenodd" clip-rule="evenodd" d="M15.5586 13.8157L19.1585 10.2386C19.351 10.0473 19.6631 10.0473 19.8556 10.2386C20.0481 10.4299 20.0481 10.74 19.8556 10.9313L15.9067 14.8553C15.7142 15.0465 15.4021 15.0465 15.2096 14.8553C15.1892 14.835 15.1709 14.8134 15.1548 14.7907C15.1333 14.7753 15.1127 14.758 15.0933 14.7388L11.1444 10.8148C10.9519 10.6236 10.9519 10.3134 11.1444 10.1221C11.3369 9.93085 11.649 9.93085 11.8415 10.1221L15.5586 13.8157Z" fill="#464B56"/>
</svg>
