<svg viewBox="0 0 24 34" fill="none" xmlns="http://www.w3.org/2000/svg">
<path d="M12.0007 0.332031C5.55065 0.332031 0.333984 5.5487 0.333984 11.9987C0.333984 20.7487 12.0007 33.6654 12.0007 33.6654C12.0007 33.6654 23.6673 20.7487 23.6673 11.9987C23.6673 5.5487 18.4507 0.332031 12.0007 0.332031ZM12.0007 16.1654C10.8956 16.1654 9.83578 15.7264 9.05437 14.945C8.27297 14.1636 7.83399 13.1038 7.83399 11.9987C7.83399 10.8936 8.27297 9.83382 9.05437 9.05242C9.83578 8.27102 10.8956 7.83203 12.0007 7.83203C13.1057 7.83203 14.1655 8.27102 14.9469 9.05242C15.7283 9.83382 16.1673 10.8936 16.1673 11.9987C16.1673 13.1038 15.7283 14.1636 14.9469 14.945C14.1655 15.7264 13.1057 16.1654 12.0007 16.1654Z" fill="#FF5530"/>
</svg>
